<svg xmlns="http://www.w3.org/2000/svg" viewBox="0 0 64 64">
  <defs>
    <linearGradient id="g" x1="8" y1="6" x2="56" y2="58" gradientUnits="userSpaceOnUse">
      <stop stop-color="#4FD1C5"/>
      <stop offset=".52" stop-color="#0A7C6E"/>
      <stop offset="1" stop-color="#075F55"/>
    </linearGradient>
    <linearGradient id="a" x1="38" y1="16" x2="54" y2="46" gradientUnits="userSpaceOnUse">
      <stop stop-color="#FFD166"/>
      <stop offset="1" stop-color="#FF7A3D"/>
    </linearGradient>
  </defs>
  <rect x="4" y="4" width="56" height="56" rx="18" fill="url(#g)"/>
  <path d="M18 17.5h22.5A5.5 5.5 0 0 1 46 23v18a5.5 5.5 0 0 1-5.5 5.5H24a6 6 0 0 1-6-6v-23Z" fill="#fff" fill-opacity=".96"/>
  <path d="M24 25h15M24 31.5h11M24 38h8" stroke="#0A7C6E" stroke-width="3.4" stroke-linecap="round"/>
  <path d="m38 37 4 4 8-10" stroke="url(#a)" stroke-width="4.2" stroke-linecap="round" stroke-linejoin="round"/>
  <circle cx="48.5" cy="17" r="6.5" fill="#FFB347"/>
  <path d="M48.5 13.7v6.6M45.2 17h6.6" stroke="#7A3E00" stroke-width="1.8" stroke-linecap="round"/>
</svg>
